# xmcd
#
# Track frame offsets: 
#        150
#        17538
#        42023
#        55315
#        70729
#        85668
#        100316
#        122579
#        137387
#        154669
#        170027
#        185515
#        201795
#
# Disc length: 2870 seconds
#
# Revision: 0
# Processed by: cddbd v1.5.2PL0 Copyright (c) Steve Scherf et al.
# Submitted via: ExactAudioCopy v1.1
#
DISCID=a30b340d
DTITLE=Craig Duncan - King Of Western Swing
DYEAR=1900
DGENRE=Western Swing
TTITLE0=San Antonio Rose
TTITLE1=Faded Love
TTITLE2=Take Me Back To Tulsa
TTITLE3=Corrina, Corrina
TTITLE4=Cherokee Maiden
TTITLE5=Right Or Wrong
TTITLE6=Maiden's Prayer
TTITLE7=Home In San Antone
TTITLE8=Deep Water
TTITLE9=Stay A Little Longer
TTITLE10=Steel Guitar Rag
TTITLE11=Time Changes Everything
TTITLE12=Goodbye Liza Jane
EXTD=
EXTT0=
EXTT1=
EXTT2=
EXTT3=
EXTT4=
EXTT5=
EXTT6=
EXTT7=
EXTT8=
EXTT9=
EXTT10=
EXTT11=
EXTT12=
PLAYORDER=
